<svg id="Layer" xmlns="http://www.w3.org/2000/svg" xmlns:xlink="http://www.w3.org/1999/xlink" viewBox="0 0 336.45 235.32"><defs><style>.cls-1{fill:url(#Névtelen_színátmenet_398);}.cls-2{fill:url(#Névtelen_színátmenet_165);}.cls-139,.cls-3{fill:#243d6a;}.cls-4{fill:url(#Névtelen_színátmenet_397);}.cls-5{opacity:0.5;isolation:isolate;fill:url(#Névtelen_színátmenet_188);}.cls-136,.cls-6{fill:#463d6a;}.cls-7{fill:url(#Névtelen_színátmenet_32);}.cls-8{fill:url(#Névtelen_színátmenet_32-2);}.cls-9{fill:url(#Névtelen_színátmenet_32-3);}.cls-10{fill:url(#Névtelen_színátmenet_32-4);}.cls-11{fill:url(#Névtelen_színátmenet_32-5);}.cls-12{fill:url(#Névtelen_színátmenet_32-6);}.cls-13{fill:url(#Névtelen_színátmenet_32-7);}.cls-14{fill:url(#Névtelen_színátmenet_32-8);}.cls-15{fill:url(#Névtelen_színátmenet_32-9);}.cls-16{fill:url(#Névtelen_színátmenet_32-10);}.cls-17{fill:url(#Névtelen_színátmenet_32-11);}.cls-18{fill:url(#Névtelen_színátmenet_32-12);}.cls-19{fill:url(#Névtelen_színátmenet_32-13);}.cls-20{fill:url(#Névtelen_színátmenet_32-14);}.cls-21{fill:url(#Névtelen_színátmenet_32-15);}.cls-22{fill:url(#Névtelen_színátmenet_32-16);}.cls-23{fill:url(#Névtelen_színátmenet_32-17);}.cls-24{fill:url(#Névtelen_színátmenet_32-18);}.cls-25{fill:url(#Névtelen_színátmenet_32-19);}.cls-26{fill:url(#Névtelen_színátmenet_32-20);}.cls-27{fill:url(#Névtelen_színátmenet_32-21);}.cls-28{fill:url(#Névtelen_színátmenet_32-22);}.cls-29{fill:url(#Névtelen_színátmenet_32-23);}.cls-30{fill:url(#Névtelen_színátmenet_32-24);}.cls-31{fill:url(#Névtelen_színátmenet_32-25);}.cls-32{fill:url(#Névtelen_színátmenet_32-26);}.cls-33{fill:url(#Névtelen_színátmenet_32-27);}.cls-34{fill:url(#Névtelen_színátmenet_32-28);}.cls-35{fill:url(#Névtelen_színátmenet_32-29);}.cls-36{fill:url(#Névtelen_színátmenet_32-30);}.cls-37{fill:url(#Névtelen_színátmenet_32-31);}.cls-38{fill:url(#Névtelen_színátmenet_32-32);}.cls-39{fill:url(#Névtelen_színátmenet_32-33);}.cls-40{fill:url(#Névtelen_színátmenet_32-34);}.cls-41{fill:url(#Névtelen_színátmenet_32-35);}.cls-42{fill:url(#Névtelen_színátmenet_32-36);}.cls-43{fill:url(#Névtelen_színátmenet_32-37);}.cls-44{fill:url(#Névtelen_színátmenet_32-38);}.cls-45{fill:url(#Névtelen_színátmenet_32-39);}.cls-46{fill:url(#Névtelen_színátmenet_32-40);}.cls-47{fill:url(#Névtelen_színátmenet_32-41);}.cls-48{fill:url(#Névtelen_színátmenet_32-42);}.cls-49{fill:url(#Névtelen_színátmenet_32-43);}.cls-50{fill:url(#Névtelen_színátmenet_32-44);}.cls-51{fill:url(#Névtelen_színátmenet_32-45);}.cls-52{fill:url(#Névtelen_színátmenet_32-46);}.cls-53{fill:url(#Névtelen_színátmenet_32-47);}.cls-54{fill:url(#Névtelen_színátmenet_32-48);}.cls-55{fill:url(#Névtelen_színátmenet_32-49);}.cls-56{fill:url(#Névtelen_színátmenet_32-50);}.cls-57{fill:url(#Névtelen_színátmenet_32-51);}.cls-58{fill:url(#Névtelen_színátmenet_32-52);}.cls-59{fill:url(#Névtelen_színátmenet_32-53);}.cls-60{fill:url(#Névtelen_színátmenet_32-54);}.cls-61{fill:url(#Névtelen_színátmenet_32-55);}.cls-62{fill:url(#Névtelen_színátmenet_32-56);}.cls-63{fill:url(#Névtelen_színátmenet_32-57);}.cls-64{fill:url(#Névtelen_színátmenet_32-58);}.cls-65{fill:url(#Névtelen_színátmenet_32-59);}.cls-66{fill:url(#Névtelen_színátmenet_32-60);}.cls-67{fill:url(#Névtelen_színátmenet_32-61);}.cls-68{fill:url(#Névtelen_színátmenet_32-62);}.cls-69{fill:url(#Névtelen_színátmenet_32-63);}.cls-70{fill:url(#Névtelen_színátmenet_32-64);}.cls-71{fill:url(#Névtelen_színátmenet_32-65);}.cls-72{fill:url(#Névtelen_színátmenet_32-66);}.cls-73{fill:url(#Névtelen_színátmenet_32-67);}.cls-74{fill:url(#Névtelen_színátmenet_32-68);}.cls-75{fill:url(#Névtelen_színátmenet_32-69);}.cls-76{fill:url(#Névtelen_színátmenet_32-70);}.cls-77{fill:url(#Névtelen_színátmenet_32-71);}.cls-78{fill:url(#Névtelen_színátmenet_32-72);}.cls-79{fill:url(#Névtelen_színátmenet_32-73);}.cls-80{fill:url(#Névtelen_színátmenet_32-74);}.cls-81{fill:url(#Névtelen_színátmenet_32-75);}.cls-82{fill:url(#Névtelen_színátmenet_32-76);}.cls-83{fill:url(#Névtelen_színátmenet_32-77);}.cls-84{fill:url(#Névtelen_színátmenet_32-78);}.cls-85{fill:url(#Névtelen_színátmenet_32-79);}.cls-86{fill:url(#Névtelen_színátmenet_32-80);}.cls-87{fill:url(#Névtelen_színátmenet_32-81);}.cls-88{fill:url(#Névtelen_színátmenet_32-82);}.cls-89{fill:url(#Névtelen_színátmenet_32-83);}.cls-90{fill:url(#Névtelen_színátmenet_32-84);}.cls-91{fill:url(#Névtelen_színátmenet_32-85);}.cls-92{fill:url(#Névtelen_színátmenet_32-86);}.cls-93{fill:url(#Névtelen_színátmenet_32-87);}.cls-94{fill:url(#Névtelen_színátmenet_32-88);}.cls-95{fill:url(#Névtelen_színátmenet_32-89);}.cls-96{fill:url(#Névtelen_színátmenet_32-90);}.cls-97{fill:url(#Névtelen_színátmenet_32-91);}.cls-98{fill:url(#Névtelen_színátmenet_32-92);}.cls-99{fill:url(#Névtelen_színátmenet_32-93);}.cls-100{fill:url(#Névtelen_színátmenet_32-94);}.cls-101{fill:url(#Névtelen_színátmenet_32-95);}.cls-102{fill:url(#Névtelen_színátmenet_32-96);}.cls-103{fill:url(#Névtelen_színátmenet_32-97);}.cls-104{fill:url(#Névtelen_színátmenet_32-98);}.cls-105{fill:url(#Névtelen_színátmenet_32-99);}.cls-106{fill:url(#Névtelen_színátmenet_32-100);}.cls-107{fill:url(#Névtelen_színátmenet_32-101);}.cls-108{fill:url(#Névtelen_színátmenet_32-102);}.cls-109{fill:url(#Névtelen_színátmenet_32-103);}.cls-110{fill:url(#Névtelen_színátmenet_32-104);}.cls-111{fill:url(#Névtelen_színátmenet_32-105);}.cls-112{fill:url(#Névtelen_színátmenet_32-106);}.cls-113{fill:url(#Névtelen_színátmenet_32-107);}.cls-114{fill:url(#Névtelen_színátmenet_32-108);}.cls-115{fill:url(#Névtelen_színátmenet_32-109);}.cls-116{fill:url(#Névtelen_színátmenet_32-110);}.cls-117{fill:url(#Névtelen_színátmenet_32-111);}.cls-118{fill:url(#Névtelen_színátmenet_32-112);}.cls-119{fill:url(#Névtelen_színátmenet_32-113);}.cls-120{fill:url(#Névtelen_színátmenet_32-114);}.cls-121{fill:url(#Névtelen_színátmenet_32-115);}.cls-122{fill:url(#Névtelen_színátmenet_32-116);}.cls-123{fill:url(#Névtelen_színátmenet_32-117);}.cls-124{fill:url(#Névtelen_színátmenet_32-118);}.cls-125{opacity:0.78;}.cls-126,.cls-172,.cls-175{opacity:0.28;}.cls-127{fill:url(#Névtelen_színátmenet_543);}.cls-128{opacity:0.32;}.cls-129{fill:url(#Névtelen_színátmenet_543-2);}.cls-130{opacity:0.13;}.cls-131{fill:url(#Névtelen_színátmenet_543-3);}.cls-132{fill:url(#Névtelen_színátmenet_543-4);}.cls-133,.cls-152,.cls-157,.cls-158,.cls-164{opacity:0.3;}.cls-134{fill:url(#Névtelen_színátmenet_543-5);}.cls-135,.cls-140{fill:#3e2b47;}.cls-135,.cls-136,.cls-138,.cls-139,.cls-150,.cls-168,.cls-171,.cls-174{fill-rule:evenodd;}.cls-137{fill:#054e7b;}.cls-138,.cls-149{fill:#487195;}.cls-141{fill:url(#Névtelen_színátmenet_162);}.cls-142,.cls-145,.cls-146{fill:#fff;}.cls-142{opacity:0.7;}.cls-143{fill:url(#Névtelen_színátmenet_156);}.cls-144{fill:url(#Névtelen_színátmenet_156-2);}.cls-145{opacity:0.4;}.cls-146,.cls-147,.cls-159,.cls-161,.cls-162,.cls-165{opacity:0.2;}.cls-148{fill:#3383a4;}.cls-150{fill:#92bcbb;}.cls-151,.cls-153,.cls-154,.cls-155,.cls-160,.cls-163,.cls-166{opacity:0.6;}.cls-151{fill:url(#Névtelen_színátmenet_26);}.cls-152{fill:url(#Névtelen_színátmenet_26-2);}.cls-153{fill:url(#Névtelen_színátmenet_31);}.cls-154{fill:url(#Névtelen_színátmenet_26-3);}.cls-155{fill:url(#Névtelen_színátmenet_31-2);}.cls-156{opacity:0.8;fill:url(#Névtelen_színátmenet_26-4);}.cls-157{fill:url(#Névtelen_színátmenet_26-5);}.cls-158{fill:url(#Névtelen_színátmenet_26-6);}.cls-159{fill:url(#Névtelen_színátmenet_26-7);}.cls-160{fill:url(#Névtelen_színátmenet_26-8);}.cls-161{fill:url(#Névtelen_színátmenet_26-9);}.cls-162{fill:url(#Névtelen_színátmenet_26-10);}.cls-163{fill:url(#Névtelen_színátmenet_31-3);}.cls-164{fill:url(#Névtelen_színátmenet_26-11);}.cls-165{fill:url(#Névtelen_színátmenet_26-12);}.cls-166{fill:url(#Névtelen_színátmenet_26-13);}.cls-167,.cls-168{fill:#35243d;}.cls-169{fill:#485381;}.cls-170{fill:url(#Névtelen_színátmenet_169);}.cls-171{fill:url(#Névtelen_színátmenet_168);}.cls-172{fill:url(#Névtelen_színátmenet_543-6);}.cls-173{fill:url(#Névtelen_színátmenet_168-2);}.cls-174{fill:url(#Névtelen_színátmenet_168-3);}.cls-175{fill:url(#Névtelen_színátmenet_543-7);}</style><linearGradient id="Névtelen_színátmenet_398" x1="168.06" y1="233.64" x2="168.06" y2="121.34" gradientTransform="matrix(1, 0, 0, -1, 0.23, 236.55)" gradientUnits="userSpaceOnUse"><stop offset="0" stop-color="#3383a4"/><stop offset="0.51" stop-color="#a9cbdb"/><stop offset="1" stop-color="#f1f8f3"/></linearGradient><radialGradient id="Névtelen_színátmenet_165" cx="168.38" cy="58.77" r="36.39" gradientUnits="userSpaceOnUse"><stop offset="0.85" stop-color="#fff"/><stop offset="0.95" stop-color="#fff" stop-opacity="0"/></radialGradient><linearGradient id="Névtelen_színátmenet_397" x1="168.11" y1="0.5" x2="168.11" y2="119.45" gradientTransform="matrix(1, 0, 0, -1, 0.23, 236.55)" gradientUnits="userSpaceOnUse"><stop offset="0" stop-color="#004d65"/><stop offset="0.63" stop-color="#aacfe2"/><stop offset="1" stop-color="#c8d5c0"/></linearGradient><linearGradient id="Névtelen_színátmenet_188" x1="220.15" y1="68.99" x2="269.61" y2="154.65" gradientTransform="matrix(1, 0, 0, -1, 0, 233.63)" gradientUnits="userSpaceOnUse"><stop offset="0" stop-color="#0082ca" stop-opacity="0"/><stop offset="1" stop-color="#00427a" stop-opacity="0.3"/></linearGradient><radialGradient id="Névtelen_színátmenet_32" cx="232.27" cy="-684.72" r="1.08" gradientTransform="translate(-195.16 804.69)" gradientUnits="userSpaceOnUse"><stop offset="0" stop-color="#fff"/><stop offset="1" stop-color="#fff" stop-opacity="0.2"/></radialGradient><radialGradient id="Névtelen_színátmenet_32-2" cx="253.43" cy="-682.31" r="1.08" xlink:href="#Névtelen_színátmenet_32"/><radialGradient id="Névtelen_színátmenet_32-3" cx="288.15" cy="-682.31" r="1.08" xlink:href="#Névtelen_színátmenet_32"/><radialGradient id="Névtelen_színátmenet_32-4" cx="263.79" cy="-679.72" r="1.08" xlink:href="#Névtelen_színátmenet_32"/><radialGradient id="Névtelen_színátmenet_32-5" cx="224.8" cy="-683.32" r="1.08" xlink:href="#Névtelen_színátmenet_32"/><radialGradient id="Névtelen_színátmenet_32-6" cx="266.96" cy="-677.53" r="1.08" xlink:href="#Névtelen_színátmenet_32"/><radialGradient id="Névtelen_színátmenet_32-7" cx="221.98" cy="-682.28" r="1.08" xlink:href="#Névtelen_színátmenet_32"/><radialGradient id="Névtelen_színátmenet_32-8" cx="247.98" cy="-682.28" r="1.08" xlink:href="#Névtelen_színátmenet_32"/><radialGradient id="Névtelen_színátmenet_32-9" cx="275.26" cy="-682.28" r="1.08" xlink:href="#Névtelen_színátmenet_32"/><radialGradient id="Névtelen_színátmenet_32-10" cx="279.06" cy="-682.28" r="1.08" xlink:href="#Névtelen_színátmenet_32"/><radialGradient id="Névtelen_színátmenet_32-11" cx="297.05" cy="-682.28" r="1.08" xlink:href="#Névtelen_színátmenet_32"/><radialGradient id="Névtelen_színátmenet_32-12" cx="243.12" cy="-680.4" r="0.68" xlink:href="#Névtelen_színátmenet_32"/><radialGradient id="Névtelen_színátmenet_32-13" cx="252.18" cy="-680.39" r="0.68" xlink:href="#Névtelen_színátmenet_32"/><radialGradient id="Névtelen_színátmenet_32-14" cx="294.84" cy="-680.39" r="0.68" xlink:href="#Névtelen_színátmenet_32"/><radialGradient id="Névtelen_színátmenet_32-15" cx="276.86" cy="-680.39" r="0.68" xlink:href="#Névtelen_színátmenet_32"/><radialGradient id="Névtelen_színátmenet_32-16" cx="276.86" cy="-675.67" r="0.68" xlink:href="#Névtelen_színátmenet_32"/><radialGradient id="Névtelen_színátmenet_32-17" cx="245.9" cy="-683.89" r="0.68" xlink:href="#Névtelen_színátmenet_32"/><radialGradient id="Névtelen_színátmenet_32-18" cx="285.36" cy="-677.2" r="0.68" xlink:href="#Névtelen_színátmenet_32"/><radialGradient id="Névtelen_színátmenet_32-19" cx="234.67" cy="-675.58" r="0.68" xlink:href="#Névtelen_színátmenet_32"/><radialGradient id="Névtelen_színátmenet_32-20" cx="228.22" cy="-682.25" r="0.68" xlink:href="#Névtelen_színátmenet_32"/><radialGradient id="Névtelen_színátmenet_32-21" cx="273.12" cy="-682.25" r="0.68" xlink:href="#Névtelen_színátmenet_32"/><radialGradient id="Névtelen_színátmenet_32-22" cx="239.72" cy="-682.25" r="0.68" xlink:href="#Névtelen_színátmenet_32"/><radialGradient id="Névtelen_színátmenet_32-23" cx="219.88" cy="-682.31" r="1.08" xlink:href="#Névtelen_színátmenet_32"/><radialGradient id="Névtelen_színátmenet_32-24" cx="206.98" cy="-682.28" r="1.08" xlink:href="#Névtelen_színátmenet_32"/><radialGradient id="Névtelen_színátmenet_32-25" cx="210.79" cy="-682.28" r="1.08" xlink:href="#Névtelen_színátmenet_32"/><radialGradient id="Névtelen_színátmenet_32-26" cx="228.77" cy="-682.28" r="1.08" xlink:href="#Névtelen_színátmenet_32"/><radialGradient id="Névtelen_színátmenet_32-27" cx="226.57" cy="-680.39" r="0.68" xlink:href="#Névtelen_színátmenet_32"/><radialGradient id="Névtelen_színátmenet_32-28" cx="208.59" cy="-680.39" r="0.68" xlink:href="#Névtelen_színátmenet_32"/><radialGradient id="Névtelen_színátmenet_32-29" cx="208.59" cy="-675.67" r="0.68" xlink:href="#Névtelen_színátmenet_32"/><radialGradient id="Névtelen_színátmenet_32-30" cx="217.09" cy="-677.2" r="0.68" xlink:href="#Névtelen_színátmenet_32"/><radialGradient id="Névtelen_színátmenet_32-31" cx="204.85" cy="-682.25" r="0.68" xlink:href="#Névtelen_színátmenet_32"/><radialGradient id="Névtelen_színátmenet_32-32" cx="231.72" cy="-662.3" r="1.08" xlink:href="#Névtelen_színátmenet_32"/><radialGradient id="Névtelen_színátmenet_32-33" cx="286.36" cy="-662.26" r="1.08" xlink:href="#Névtelen_színátmenet_32"/><radialGradient id="Névtelen_színátmenet_32-34" cx="215.74" cy="-660.37" r="0.68" xlink:href="#Névtelen_színátmenet_32"/><radialGradient id="Névtelen_színátmenet_32-35" cx="290.4" cy="-660.37" r="0.68" xlink:href="#Névtelen_színátmenet_32"/><radialGradient id="Névtelen_színátmenet_32-36" cx="268.95" cy="-655.65" r="0.68" xlink:href="#Névtelen_színátmenet_32"/><radialGradient id="Névtelen_színátmenet_32-37" cx="369.86" cy="-684.72" r="1.08" xlink:href="#Névtelen_színátmenet_32"/><radialGradient id="Névtelen_színátmenet_32-38" cx="391.02" cy="-682.31" r="1.08" xlink:href="#Névtelen_színátmenet_32"/><radialGradient id="Névtelen_színátmenet_32-39" cx="425.74" cy="-682.31" r="1.08" xlink:href="#Névtelen_színátmenet_32"/><radialGradient id="Névtelen_színátmenet_32-40" cx="401.38" cy="-679.72" r="1.08" xlink:href="#Névtelen_színátmenet_32"/><radialGradient id="Névtelen_színátmenet_32-41" cx="362.39" cy="-683.32" r="1.08" xlink:href="#Névtelen_színátmenet_32"/><radialGradient id="Névtelen_színátmenet_32-42" cx="404.55" cy="-677.53" r="1.08" xlink:href="#Névtelen_színátmenet_32"/><radialGradient id="Névtelen_színátmenet_32-43" cx="359.57" cy="-682.28" r="1.08" xlink:href="#Névtelen_színátmenet_32"/><radialGradient id="Névtelen_színátmenet_32-44" cx="385.57" cy="-682.28" r="1.08" xlink:href="#Névtelen_színátmenet_32"/><radialGradient id="Névtelen_színátmenet_32-45" cx="412.84" cy="-682.28" r="1.08" xlink:href="#Névtelen_színátmenet_32"/><radialGradient id="Névtelen_színátmenet_32-46" cx="416.65" cy="-682.28" r="1.08" xlink:href="#Névtelen_színátmenet_32"/><radialGradient id="Névtelen_színátmenet_32-47" cx="434.63" cy="-682.28" r="1.08" xlink:href="#Névtelen_színátmenet_32"/><radialGradient id="Névtelen_színátmenet_32-48" cx="380.7" cy="-680.4" r="0.68" xlink:href="#Névtelen_színátmenet_32"/><radialGradient id="Névtelen_színátmenet_32-49" cx="389.77" cy="-680.39" r="0.68" xlink:href="#Névtelen_színátmenet_32"/><radialGradient id="Névtelen_színátmenet_32-50" cx="432.43" cy="-680.39" r="0.68" xlink:href="#Névtelen_színátmenet_32"/><radialGradient id="Névtelen_színátmenet_32-51" cx="414.45" cy="-680.39" r="0.68" xlink:href="#Névtelen_színátmenet_32"/><radialGradient id="Névtelen_színátmenet_32-52" cx="414.45" cy="-675.67" r="0.68" xlink:href="#Névtelen_színátmenet_32"/><radialGradient id="Névtelen_színátmenet_32-53" cx="383.49" cy="-683.89" r="0.68" xlink:href="#Névtelen_színátmenet_32"/><radialGradient id="Névtelen_színátmenet_32-54" cx="422.95" cy="-677.2" r="0.68" xlink:href="#Névtelen_színátmenet_32"/><radialGradient id="Névtelen_színátmenet_32-55" cx="372.25" cy="-675.58" r="0.68" xlink:href="#Névtelen_színátmenet_32"/><radialGradient id="Névtelen_színátmenet_32-56" cx="365.8" cy="-682.25" r="0.68" xlink:href="#Névtelen_színátmenet_32"/><radialGradient id="Névtelen_színátmenet_32-57" cx="410.71" cy="-682.25" r="0.68" xlink:href="#Névtelen_színátmenet_32"/><radialGradient id="Névtelen_színátmenet_32-58" cx="377.31" cy="-682.25" r="0.68" xlink:href="#Névtelen_színátmenet_32"/><radialGradient id="Névtelen_színátmenet_32-59" cx="301.58" cy="-684.72" r="1.08" xlink:href="#Névtelen_színátmenet_32"/><radialGradient id="Névtelen_színátmenet_32-60" cx="322.74" cy="-682.31" r="1.08" xlink:href="#Névtelen_színátmenet_32"/><radialGradient id="Névtelen_színátmenet_32-61" cx="357.46" cy="-682.31" r="1.08" xlink:href="#Névtelen_színátmenet_32"/><radialGradient id="Névtelen_színátmenet_32-62" cx="333.1" cy="-679.72" r="1.08" xlink:href="#Névtelen_színátmenet_32"/><radialGradient id="Névtelen_színátmenet_32-63" cx="336.27" cy="-677.53" r="1.08" xlink:href="#Névtelen_színátmenet_32"/><radialGradient id="Névtelen_színátmenet_32-64" cx="317.3" cy="-682.28" r="1.08" xlink:href="#Névtelen_színátmenet_32"/><radialGradient id="Névtelen_színátmenet_32-65" cx="344.57" cy="-682.28" r="1.08" xlink:href="#Névtelen_színátmenet_32"/><radialGradient id="Névtelen_színátmenet_32-66" cx="348.37" cy="-682.28" r="1.08" xlink:href="#Névtelen_színátmenet_32"/><radialGradient id="Névtelen_színátmenet_32-67" cx="366.36" cy="-682.28" r="1.08" xlink:href="#Névtelen_színátmenet_32"/><radialGradient id="Névtelen_színátmenet_32-68" cx="312.43" cy="-680.4" r="0.68" xlink:href="#Névtelen_színátmenet_32"/><radialGradient id="Névtelen_színátmenet_32-69" cx="321.49" cy="-680.39" r="0.68" xlink:href="#Névtelen_színátmenet_32"/><radialGradient id="Névtelen_színátmenet_32-70" cx="364.15" cy="-680.39" r="0.68" xlink:href="#Névtelen_színátmenet_32"/><radialGradient id="Névtelen_színátmenet_32-71" cx="346.18" cy="-680.39" r="0.68" xlink:href="#Névtelen_színátmenet_32"/><radialGradient id="Névtelen_színátmenet_32-72" cx="346.18" cy="-675.67" r="0.68" xlink:href="#Névtelen_színátmenet_32"/><radialGradient id="Névtelen_színátmenet_32-73" cx="315.21" cy="-683.89" r="0.68" xlink:href="#Névtelen_színátmenet_32"/><radialGradient id="Névtelen_színátmenet_32-74" cx="354.67" cy="-677.2" r="0.68" xlink:href="#Névtelen_színátmenet_32"/><radialGradient id="Névtelen_színátmenet_32-75" cx="303.98" cy="-675.58" r="0.68" xlink:href="#Névtelen_színátmenet_32"/><radialGradient id="Névtelen_színátmenet_32-76" cx="342.43" cy="-682.25" r="0.68" xlink:href="#Névtelen_színátmenet_32"/><radialGradient id="Névtelen_színátmenet_32-77" cx="309.03" cy="-682.25" r="0.68" xlink:href="#Névtelen_színátmenet_32"/><radialGradient id="Névtelen_színátmenet_32-78" cx="369.3" cy="-662.3" r="1.08" xlink:href="#Névtelen_színátmenet_32"/><radialGradient id="Névtelen_színátmenet_32-79" cx="316.9" cy="-662.26" r="1.08" xlink:href="#Névtelen_színátmenet_32"/><radialGradient id="Névtelen_színátmenet_32-80" cx="423.95" cy="-662.26" r="1.08" xlink:href="#Névtelen_színátmenet_32"/><radialGradient id="Névtelen_színátmenet_32-81" cx="353.33" cy="-660.37" r="0.68" xlink:href="#Névtelen_színátmenet_32"/><radialGradient id="Névtelen_színátmenet_32-82" cx="427.98" cy="-660.37" r="0.68" xlink:href="#Névtelen_színátmenet_32"/><radialGradient id="Névtelen_színátmenet_32-83" cx="323.82" cy="-655.65" r="0.68" xlink:href="#Névtelen_színátmenet_32"/><radialGradient id="Névtelen_színátmenet_32-84" cx="406.54" cy="-655.65" r="0.68" xlink:href="#Névtelen_színátmenet_32"/><radialGradient id="Névtelen_színátmenet_32-85" cx="507.44" cy="-684.72" r="1.08" xlink:href="#Névtelen_színátmenet_32"/><radialGradient id="Névtelen_színátmenet_32-86" cx="528.6" cy="-682.31" r="1.08" xlink:href="#Névtelen_színátmenet_32"/><radialGradient id="Névtelen_színátmenet_32-87" cx="499.97" cy="-683.32" r="1.08" xlink:href="#Névtelen_színátmenet_32"/><radialGradient id="Névtelen_színátmenet_32-88" cx="497.15" cy="-682.28" r="1.08" xlink:href="#Névtelen_színátmenet_32"/><radialGradient id="Névtelen_színátmenet_32-89" cx="523.16" cy="-682.28" r="1.08" xlink:href="#Névtelen_színátmenet_32"/><radialGradient id="Névtelen_színátmenet_32-90" cx="518.29" cy="-680.4" r="0.68" xlink:href="#Névtelen_színátmenet_32"/><radialGradient id="Névtelen_színátmenet_32-91" cx="527.35" cy="-680.39" r="0.68" xlink:href="#Névtelen_színátmenet_32"/><radialGradient id="Névtelen_színátmenet_32-92" cx="521.07" cy="-683.89" r="0.68" xlink:href="#Névtelen_színátmenet_32"/><radialGradient id="Névtelen_színátmenet_32-93" cx="509.84" cy="-675.58" r="0.68" xlink:href="#Névtelen_színátmenet_32"/><radialGradient id="Névtelen_színátmenet_32-94" cx="503.39" cy="-682.25" r="0.68" xlink:href="#Névtelen_színátmenet_32"/><radialGradient id="Névtelen_színátmenet_32-95" cx="514.9" cy="-682.25" r="0.68" xlink:href="#Névtelen_színátmenet_32"/><radialGradient id="Névtelen_színátmenet_32-96" cx="439.17" cy="-684.72" r="1.08" xlink:href="#Névtelen_színátmenet_32"/><radialGradient id="Névtelen_színátmenet_32-97" cx="460.33" cy="-682.31" r="1.08" xlink:href="#Névtelen_színátmenet_32"/><radialGradient id="Névtelen_színátmenet_32-98" cx="495.05" cy="-682.31" r="1.08" xlink:href="#Névtelen_színátmenet_32"/><radialGradient id="Névtelen_színátmenet_32-99" cx="470.69" cy="-679.72" r="1.08" xlink:href="#Névtelen_színátmenet_32"/><radialGradient id="Névtelen_színátmenet_32-100" cx="473.86" cy="-677.53" r="1.08" xlink:href="#Névtelen_színátmenet_32"/><radialGradient id="Névtelen_színátmenet_32-101" cx="454.88" cy="-682.28" r="1.08" xlink:href="#Névtelen_színátmenet_32"/><radialGradient id="Névtelen_színátmenet_32-102" cx="482.15" cy="-682.28" r="1.08" xlink:href="#Névtelen_színátmenet_32"/><radialGradient id="Névtelen_színátmenet_32-103" cx="485.96" cy="-682.28" r="1.08" xlink:href="#Névtelen_színátmenet_32"/><radialGradient id="Névtelen_színátmenet_32-104" cx="503.94" cy="-682.28" r="1.08" xlink:href="#Névtelen_színátmenet_32"/><radialGradient id="Névtelen_színátmenet_32-105" cx="450.02" cy="-680.4" r="0.68" xlink:href="#Névtelen_színátmenet_32"/><radialGradient id="Névtelen_színátmenet_32-106" cx="459.08" cy="-680.39" r="0.68" xlink:href="#Névtelen_színátmenet_32"/><radialGradient id="Névtelen_színátmenet_32-107" cx="501.74" cy="-680.39" r="0.68" xlink:href="#Névtelen_színátmenet_32"/><radialGradient id="Névtelen_színátmenet_32-108" cx="483.76" cy="-680.39" r="0.68" xlink:href="#Névtelen_színátmenet_32"/><radialGradient id="Névtelen_színátmenet_32-109" cx="483.76" cy="-675.67" r="0.68" xlink:href="#Névtelen_színátmenet_32"/><radialGradient id="Névtelen_színátmenet_32-110" cx="452.8" cy="-683.89" r="0.68" xlink:href="#Névtelen_színátmenet_32"/><radialGradient id="Névtelen_színátmenet_32-111" cx="492.26" cy="-677.2" r="0.68" xlink:href="#Névtelen_színátmenet_32"/><radialGradient id="Névtelen_színátmenet_32-112" cx="441.57" cy="-675.58" r="0.68" xlink:href="#Névtelen_színátmenet_32"/><radialGradient id="Névtelen_színátmenet_32-113" cx="480.02" cy="-682.25" r="0.68" xlink:href="#Névtelen_színátmenet_32"/><radialGradient id="Névtelen_színátmenet_32-114" cx="446.62" cy="-682.25" r="0.68" xlink:href="#Névtelen_színátmenet_32"/><radialGradient id="Névtelen_színátmenet_32-115" cx="506.89" cy="-662.3" r="1.08" xlink:href="#Névtelen_színátmenet_32"/><radialGradient id="Névtelen_színátmenet_32-116" cx="454.48" cy="-662.26" r="1.08" xlink:href="#Névtelen_színátmenet_32"/><radialGradient id="Névtelen_színátmenet_32-117" cx="490.91" cy="-660.37" r="0.68" xlink:href="#Névtelen_színátmenet_32"/><radialGradient id="Névtelen_színátmenet_32-118" cx="461.4" cy="-655.65" r="0.68" xlink:href="#Névtelen_színátmenet_32"/><linearGradient id="Névtelen_színátmenet_543" x1="928.82" y1="361.53" x2="1115.69" y2="293.91" gradientTransform="translate(-790.53 -117.1)" gradientUnits="userSpaceOnUse"><stop offset="0" stop-color="#fff" stop-opacity="0"/><stop offset="1" stop-color="#fff"/></linearGradient><linearGradient id="Névtelen_színátmenet_543-2" x1="-598.91" y1="318.15" x2="-412.09" y2="250.55" gradientTransform="matrix(-1, 0, 0, 1, -400.53, -117.1)" xlink:href="#Névtelen_színátmenet_543"/><linearGradient id="Névtelen_színátmenet_543-3" x1="947.59" y1="319.11" x2="1116.28" y2="258.07" xlink:href="#Névtelen_színátmenet_543"/><linearGradient id="Névtelen_színátmenet_543-4" x1="947.95" y1="323.44" x2="1116.75" y2="262.36" xlink:href="#Névtelen_színátmenet_543"/><linearGradient id="Névtelen_színátmenet_543-5" x1="810.36" y1="373.58" x2="1107.48" y2="266.07" xlink:href="#Névtelen_színátmenet_543"/><linearGradient id="Névtelen_színátmenet_162" x1="217.18" y1="117.46" x2="217.18" y2="88.17" gradientUnits="userSpaceOnUse"><stop offset="0" stop-color="#a9cbdb"/><stop offset="0.21" stop-color="#b0cdd7"/><stop offset="1" stop-color="#c9d5ca"/></linearGradient><linearGradient id="Névtelen_színátmenet_156" x1="221.25" y1="99.51" x2="335.99" y2="99.51" gradientUnits="userSpaceOnUse"><stop offset="0" stop-color="#577e90"/><stop offset="1" stop-color="#6694aa"/></linearGradient><linearGradient id="Névtelen_színátmenet_156-2" x1="281.75" y1="93.11" x2="288.88" y2="93.11" xlink:href="#Névtelen_színátmenet_156"/><radialGradient id="Névtelen_színátmenet_26" cx="228.4" cy="-69.08" r="20.87" gradientTransform="matrix(1, -0.06, 0.06, 1.01, -0.06, 191.53)" gradientUnits="userSpaceOnUse"><stop offset="0.74" stop-color="#fff" stop-opacity="0.8"/><stop offset="0.95" stop-color="#fff" stop-opacity="0"/></radialGradient><radialGradient id="Névtelen_színátmenet_26-2" cx="117.69" cy="-65.13" r="32.84" xlink:href="#Névtelen_színátmenet_26"/><radialGradient id="Névtelen_színátmenet_31" cx="66.93" cy="-32.24" r="27.66" gradientTransform="matrix(1, -0.06, 0.06, 1.01, -0.06, 191.53)" gradientUnits="userSpaceOnUse"><stop offset="0.85" stop-color="#fff" stop-opacity="0.6"/><stop offset="0.95" stop-color="#fff" stop-opacity="0"/></radialGradient><radialGradient id="Névtelen_színátmenet_26-3" cx="99.86" cy="-85.59" r="14.9" xlink:href="#Névtelen_színátmenet_26"/><radialGradient id="Névtelen_színátmenet_31-2" cx="36.12" cy="-111.18" r="20.87" xlink:href="#Névtelen_színátmenet_31"/><radialGradient id="Névtelen_színátmenet_26-4" cx="236.48" cy="-8.6" r="28.38" xlink:href="#Névtelen_színátmenet_26"/><radialGradient id="Névtelen_színátmenet_26-5" cx="134.23" cy="16.09" r="20.87" xlink:href="#Névtelen_színátmenet_26"/><radialGradient id="Névtelen_színátmenet_26-6" cx="115.91" cy="-112.61" r="20.87" xlink:href="#Névtelen_színátmenet_26"/><radialGradient id="Névtelen_színátmenet_26-7" cx="73.92" cy="-140.99" r="29.48" xlink:href="#Névtelen_színátmenet_26"/><radialGradient id="Névtelen_színátmenet_26-8" cx="51.81" cy="-1.64" r="20.87" xlink:href="#Névtelen_színátmenet_26"/><radialGradient id="Névtelen_színátmenet_26-9" cx="142.15" cy="-107.94" r="20.87" xlink:href="#Névtelen_színátmenet_26"/><radialGradient id="Névtelen_színátmenet_26-10" cx="259.63" cy="-93.56" r="20.87" xlink:href="#Névtelen_színátmenet_26"/><radialGradient id="Névtelen_színátmenet_31-3" cx="288.43" cy="-126.68" r="27.02" xlink:href="#Névtelen_színátmenet_31"/><radialGradient id="Névtelen_színátmenet_26-11" cx="276.08" cy="-54.46" r="29.02" xlink:href="#Névtelen_színátmenet_26"/><radialGradient id="Névtelen_színátmenet_26-12" cx="281.53" cy="19.09" r="20.87" xlink:href="#Névtelen_színátmenet_26"/><radialGradient id="Névtelen_színátmenet_26-13" cx="33.26" cy="-38.73" r="20.87" xlink:href="#Névtelen_színátmenet_26"/><linearGradient id="Névtelen_színátmenet_169" x1="236.67" y1="169.98" x2="236.67" y2="158.75" gradientUnits="userSpaceOnUse"><stop offset="0" stop-color="#f8f095"/><stop offset="0.28" stop-color="#f7e69b"/><stop offset="1" stop-color="#f5d1a8"/></linearGradient><linearGradient id="Névtelen_színátmenet_168" x1="212.66" y1="169.98" x2="212.66" y2="145.08" xlink:href="#Névtelen_színátmenet_169"/><linearGradient id="Névtelen_színátmenet_543-6" x1="153.96" y1="177.31" x2="304.82" y2="177.31" gradientTransform="matrix(1, 0, 0, 1, 0, 0)" xlink:href="#Névtelen_színátmenet_543"/><linearGradient id="Névtelen_színátmenet_168-2" x1="236.44" y1="120.11" x2="236.44" y2="109.22" gradientTransform="matrix(1, 0, 0, -1, 0.23, 322.55)" xlink:href="#Névtelen_színátmenet_169"/><linearGradient id="Névtelen_színátmenet_168-3" x1="212.43" y1="120.11" x2="212.43" y2="95.98" gradientTransform="matrix(1, 0, 0, -1, 0.23, 322.55)" xlink:href="#Névtelen_színátmenet_169"/><linearGradient id="Névtelen_színátmenet_543-7" x1="153.73" y1="127.21" x2="304.59" y2="127.21" gradientTransform="matrix(1, 0, 0, -1, 0.23, 322.55)" xlink:href="#Névtelen_színátmenet_543"/></defs><title>eezy_03</title><rect class="cls-1" x="0.36" y="0.05" width="335.86" height="117.45"/><circle class="cls-2" cx="168.38" cy="58.77" r="36.39"/><path class="cls-3" d="M151.56,15.34a7.65,7.65,0,0,0-1.42-.95,8.22,8.22,0,0,0,1.08-1.05,7.62,7.62,0,0,0-.9-10.74l-.06-.05a3.3,3.3,0,0,0,.51-.48,3.5,3.5,0,0,0,.8-2.07H-.23V76.6a6.89,6.89,0,0,0,7.55,3.69c.18-.05.35-.14.53-.2,1.88,5,6.42,8,10.73,7,3.51-.87,5.88-4.22,6.29-8.28a6,6,0,0,0,1.32-.17,7.26,7.26,0,0,0,5-5.08,10.31,10.31,0,0,0,5.55-2.1,4.18,4.18,0,0,0,2.94.35,4.25,4.25,0,0,0,3-2.63,8.21,8.21,0,0,0,2.19-.23,7.35,7.35,0,0,0,1-.32l6.88-.77A3.13,3.13,0,0,0,56,69.89a7.76,7.76,0,0,0,8.7,3.53,8,8,0,0,0,5.16-3.92l.84.26a4.52,4.52,0,0,0,4.87,2.38,7.19,7.19,0,0,0,8.6,4.41,7.65,7.65,0,0,0,2-.82,1.55,1.55,0,0,0,0,.31,2.07,2.07,0,0,0,2.51,1.51l.12,0a3.17,3.17,0,0,0,3.61,2.14,2.71,2.71,0,0,0,1.25-.72,2.78,2.78,0,0,0,2.73.94,3,3,0,0,0,2-3.33,3.36,3.36,0,0,0,.77-.08,3.23,3.23,0,0,0,1.31-5.56,2.55,2.55,0,0,0,1-1.87,6,6,0,0,0,1.26-.16,5.76,5.76,0,0,0,4.27-6.94,1.27,1.27,0,0,0-.06-.18,2.79,2.79,0,0,0,1.58-1.65l1.33-1.38a1.94,1.94,0,0,0,1.46.28,1.82,1.82,0,0,0,.79-.44,6,6,0,0,0,11.18-3,5.06,5.06,0,0,0,3.14-4,9.79,9.79,0,0,0,6.76.74,9.38,9.38,0,0,0,7.27-9.88c3.55-.92,5.3-5.25,5.63-9.5a3.45,3.45,0,0,0,4.32-5.21,7.64,7.64,0,0,0,1.08-12.41Z" transform="translate(0.23 0.06)"/><polygon class="cls-4" points="0.24 117.37 336.22 117.5 336.45 235.27 0.24 235.27 0.24 117.37"/><path class="cls-5" d="M293.11,137.82c-6.89,0-13.4.06-19.11.06l-14.81-5.83c-18.26,7.27-36.54,14.5-37.07,14.51,0,0-40.78-18.12-41.22-18.27s-11.13,0-12.82,0c-.84,0-29.82-10.89-29.82-10.89l83.47,0-.48-.19s39.31-.2,114.74.18v35.84Z" transform="translate(0.23 0.06)"/><path class="cls-6" d="M57.88,72.07A7.08,7.08,0,0,1,56,69.89a3.13,3.13,0,0,1-3.29-2.06l-6.88.77a7.35,7.35,0,0,1-1,.32,8.21,8.21,0,0,1-2.19.23,4.25,4.25,0,0,1-3,2.63,4.18,4.18,0,0,1-2.94-.35,10.31,10.31,0,0,1-5.55,2.1,7.26,7.26,0,0,1-5,5.08,6,6,0,0,1-1.32.17c-.41,4.06-2.78,7.41-6.29,8.28-4.31,1.07-8.85-2-10.73-7-.18.06-.35.15-.53.2A6.79,6.79,0,0,1,.16,77.2v50.15a10.34,10.34,0,0,0,2-5.6l1.14-.18a5.86,5.86,0,0,0,7,0,9.32,9.32,0,0,0,12.53.19,9.87,9.87,0,0,0,1.88-2.12,2.54,2.54,0,0,0,.23.34,2.69,2.69,0,0,0,3.79.31s.07-.08.12-.12a4.1,4.1,0,0,0,5.42.41,3.55,3.55,0,0,0,1-1.55,3.59,3.59,0,0,0,3.71-.48,3.85,3.85,0,0,0,.47-5.05A4.12,4.12,0,0,0,40.82,107a4.28,4.28,0,0,0-2.13-1.35,3.33,3.33,0,0,0,.11-2.76,7.58,7.58,0,0,0,1.37-.91,7.48,7.48,0,0,0,1-10.53L41,91.32A3.66,3.66,0,0,0,41,86.53a1.52,1.52,0,0,0,.42-.75,2.69,2.69,0,0,0,3-.18,2.27,2.27,0,0,0,.66-1,7.76,7.76,0,0,0,11.31-9.87A6.82,6.82,0,0,0,57.88,72.07Z" transform="translate(0.23 0.06)"/><circle class="cls-7" cx="37.11" cy="119.98" r="1.08"/><circle class="cls-8" cx="58.27" cy="122.38" r="1.08"/><circle class="cls-9" cx="92.99" cy="122.38" r="1.08"/><circle class="cls-10" cx="68.63" cy="124.97" r="1.08"/><circle class="cls-11" cx="29.64" cy="121.37" r="1.08"/><circle class="cls-12" cx="71.8" cy="127.16" r="1.08"/><circle class="cls-13" cx="26.82" cy="122.41" r="1.08"/><circle class="cls-14" cx="52.83" cy="122.41" r="1.08"/><circle class="cls-15" cx="80.1" cy="122.41" r="1.08"/><circle class="cls-16" cx="83.91" cy="122.41" r="1.08"/><circle class="cls-17" cx="101.89" cy="122.41" r="1.08"/><circle class="cls-18" cx="47.96" cy="124.29" r="0.68"/><circle class="cls-19" cx="57.02" cy="124.31" r="0.68"/><circle class="cls-20" cx="99.68" cy="124.31" r="0.68"/><circle class="cls-21" cx="81.71" cy="124.31" r="0.68"/><circle class="cls-22" cx="81.71" cy="129.02" r="0.68"/><circle class="cls-23" cx="50.75" cy="120.81" r="0.68"/><circle class="cls-24" cx="90.2" cy="127.49" r="0.68"/><circle class="cls-25" cx="39.51" cy="129.12" r="0.68"/><circle class="cls-26" cx="33.06" cy="122.45" r="0.68"/><circle class="cls-27" cx="77.96" cy="122.45" r="0.68"/><circle class="cls-28" cx="44.57" cy="122.45" r="0.68"/><circle class="cls-29" cx="24.72" cy="122.38" r="1.08"/><circle class="cls-30" cx="11.82" cy="122.41" r="1.08"/><circle class="cls-31" cx="15.63" cy="122.41" r="1.08"/><circle class="cls-32" cx="33.61" cy="122.41" r="1.08"/><circle class="cls-33" cx="31.41" cy="124.31" r="0.68"/><circle class="cls-34" cx="13.43" cy="124.31" r="0.68"/><circle class="cls-35" cx="13.43" cy="129.02" r="0.68"/><circle class="cls-36" cx="21.93" cy="127.49" r="0.68"/><circle class="cls-37" cx="9.69" cy="122.45" r="0.68"/><circle class="cls-38" cx="36.56" cy="142.4" r="1.08"/><circle class="cls-39" cx="91.2" cy="142.43" r="1.08"/><circle class="cls-40" cx="20.58" cy="144.33" r="0.68"/><circle class="cls-41" cx="95.24" cy="144.33" r="0.68"/><circle class="cls-42" cx="73.8" cy="149.04" r="0.68"/><circle class="cls-43" cx="174.7" cy="119.98" r="1.08"/><circle class="cls-44" cx="195.86" cy="122.38" r="1.08"/><circle class="cls-45" cx="230.58" cy="122.38" r="1.08"/><circle class="cls-46" cx="206.22" cy="124.97" r="1.08"/><circle class="cls-47" cx="167.23" cy="121.37" r="1.08"/><circle class="cls-48" cx="209.39" cy="127.16" r="1.08"/><circle class="cls-49" cx="164.41" cy="122.41" r="1.08"/><circle class="cls-50" cx="190.41" cy="122.41" r="1.08"/><circle class="cls-51" cx="217.69" cy="122.41" r="1.08"/><circle class="cls-52" cx="221.49" cy="122.41" r="1.08"/><circle class="cls-53" cx="239.48" cy="122.41" r="1.08"/><circle class="cls-54" cx="185.55" cy="124.29" r="0.68"/><circle class="cls-55" cx="194.61" cy="124.31" r="0.68"/><circle class="cls-56" cx="237.27" cy="124.31" r="0.68"/><circle class="cls-57" cx="219.29" cy="124.31" r="0.68"/><circle class="cls-58" cx="219.29" cy="129.02" r="0.68"/><circle class="cls-59" cx="188.33" cy="120.81" r="0.68"/><circle class="cls-60" cx="227.79" cy="127.49" r="0.68"/><circle class="cls-61" cx="177.1" cy="129.12" r="0.68"/><circle class="cls-62" cx="170.65" cy="122.45" r="0.68"/><circle class="cls-63" cx="215.55" cy="122.45" r="0.68"/><circle class="cls-64" cx="182.15" cy="122.45" r="0.68"/><circle class="cls-65" cx="106.42" cy="119.98" r="1.08"/><circle class="cls-66" cx="127.59" cy="122.38" r="1.08"/><circle class="cls-67" cx="162.31" cy="122.38" r="1.08"/><circle class="cls-68" cx="137.94" cy="124.97" r="1.08"/><circle class="cls-69" cx="141.11" cy="127.16" r="1.08"/><circle class="cls-70" cx="122.14" cy="122.41" r="1.08"/><circle class="cls-71" cx="149.41" cy="122.41" r="1.08"/><circle class="cls-72" cx="153.22" cy="122.41" r="1.08"/><circle class="cls-73" cx="171.2" cy="122.41" r="1.08"/><circle class="cls-74" cx="117.27" cy="124.29" r="0.68"/><circle class="cls-75" cx="126.34" cy="124.31" r="0.68"/><circle class="cls-76" cx="168.99" cy="124.31" r="0.68"/><circle class="cls-77" cx="151.02" cy="124.31" r="0.68"/><circle class="cls-78" cx="151.02" cy="129.02" r="0.68"/><circle class="cls-79" cx="120.06" cy="120.81" r="0.68"/><circle class="cls-80" cx="159.51" cy="127.49" r="0.68"/><circle class="cls-81" cx="108.82" cy="129.12" r="0.68"/><circle class="cls-82" cx="147.27" cy="122.45" r="0.68"/><circle class="cls-83" cx="113.88" cy="122.45" r="0.68"/><circle class="cls-84" cx="174.14" cy="142.4" r="1.08"/><circle class="cls-85" cx="121.74" cy="142.43" r="1.08"/><circle class="cls-86" cx="228.79" cy="142.43" r="1.08"/><circle class="cls-87" cx="158.17" cy="144.33" r="0.68"/><circle class="cls-88" cx="232.83" cy="144.33" r="0.68"/><circle class="cls-89" cx="128.66" cy="149.04" r="0.68"/><circle class="cls-90" cx="211.38" cy="149.04" r="0.68"/><circle class="cls-91" cx="312.29" cy="119.98" r="1.08"/><circle class="cls-92" cx="333.45" cy="122.38" r="1.08"/><circle class="cls-93" cx="304.81" cy="121.37" r="1.08"/><circle class="cls-94" cx="301.99" cy="122.41" r="1.08"/><circle class="cls-95" cx="328" cy="122.41" r="1.08"/><circle class="cls-96" cx="323.13" cy="124.29" r="0.68"/><circle class="cls-97" cx="332.2" cy="124.31" r="0.68"/><circle class="cls-98" cx="325.92" cy="120.81" r="0.68"/><circle class="cls-99" cx="314.68" cy="129.12" r="0.68"/><circle class="cls-100" cx="308.23" cy="122.45" r="0.68"/><circle class="cls-101" cx="319.74" cy="122.45" r="0.68"/><circle class="cls-102" cx="244.01" cy="119.98" r="1.08"/><circle class="cls-103" cx="265.17" cy="122.38" r="1.08"/><circle class="cls-104" cx="299.89" cy="122.38" r="1.08"/><circle class="cls-105" cx="275.53" cy="124.97" r="1.08"/><circle class="cls-106" cx="278.7" cy="127.16" r="1.08"/><circle class="cls-107" cx="259.72" cy="122.41" r="1.08"/><circle class="cls-108" cx="287" cy="122.41" r="1.08"/><circle class="cls-109" cx="290.8" cy="122.41" r="1.08"/><circle class="cls-110" cx="308.79" cy="122.41" r="1.08"/><circle class="cls-111" cx="254.86" cy="124.29" r="0.68"/><circle class="cls-112" cx="263.92" cy="124.31" r="0.68"/><circle class="cls-113" cx="306.58" cy="124.31" r="0.68"/><circle class="cls-114" cx="288.6" cy="124.31" r="0.68"/><circle class="cls-115" cx="288.6" cy="129.02" r="0.68"/><circle class="cls-116" cx="257.64" cy="120.81" r="0.68"/><circle class="cls-117" cx="297.1" cy="127.49" r="0.68"/><circle class="cls-118" cx="246.41" cy="129.12" r="0.68"/><circle class="cls-119" cx="284.86" cy="122.45" r="0.68"/><circle class="cls-120" cx="251.46" cy="122.45" r="0.68"/><circle class="cls-121" cx="311.73" cy="142.4" r="1.08"/><circle class="cls-122" cx="259.33" cy="142.43" r="1.08"/><circle class="cls-123" cx="295.75" cy="144.33" r="0.68"/><circle class="cls-124" cx="266.25" cy="149.04" r="0.68"/><g class="cls-125"><g class="cls-126"><polygon class="cls-127" points="336.27 211.8 125.81 209.94 336.27 207.52 336.27 211.8"/></g><g class="cls-128"><polygon class="cls-129" points="0 167.05 210.46 167.65 0 165.38 0 167.05"/></g><g class="cls-130"><polygon class="cls-131" points="336.27 171.58 146.04 171.58 336.27 170.05 336.27 171.58"/></g><g class="cls-126"><polygon class="cls-132" points="336.27 177.17 146.04 174.91 336.27 173.06 336.27 177.17"/></g><g class="cls-133"><polygon class="cls-134" points="336.27 203.92 0.5 203.07 0.5 201.54 336.27 202.39 336.27 203.92"/></g></g><path class="cls-135" d="M74.27,235.26a96.16,96.16,0,0,0-28-6.3c-14.47-1-31.73,3.12-40.58,6.3Z" transform="translate(0.23 0.06)"/><path class="cls-136" d="M4.08,235.13l.73-1c10.83-15.51,56.44-72.84,56.44-72.84s-32,14-60.15,44.48c-.45.48-.89,1-1.33,1.48v27.93Z" transform="translate(0.23 0.06)"/><path class="cls-137" d="M59.08,163c.69-.46,1.1-.7,1.17-.75A4.54,4.54,0,0,0,59.08,163Z" transform="translate(0.23 0.06)"/><path class="cls-138" d="M-.23,190.64v37.48c1-2.8,1.93-5.28,2.68-7.25,5.26-13.86,29-66.19,29-66.19A156.47,156.47,0,0,0-.23,190.64Z" transform="translate(0.23 0.06)"/><path class="cls-6" d="M-.23,208.45c9.13-23.44,26.5-47.37,30.32-52C26.78,160.06,12.93,176-.23,205.39Z" transform="translate(0.23 0.06)"/><path class="cls-137" d="M30.09,156.46c.44-.48.71-.76.75-.82A4.76,4.76,0,0,0,30.09,156.46Z" transform="translate(0.23 0.06)"/><path class="cls-139" d="M17.24,235.13c5.51-4.73,10.43-8.92,13.93-11.82C45.75,211.25,105,168.16,105,168.16S70.39,173.1,35.16,195C22.62,202.78,10.4,213.32-.23,224v11.09Z" transform="translate(0.23 0.06)"/><path class="cls-140" d="M1.77,235.13H4.16c1.14-1.14,2.28-2.27,3.41-3.36,8.81-8.57,18.83-16.22,27.6-23.23,25-20.61,60.08-36.53,67.26-39.26C94.43,171.86,51.53,187,1.77,235.13Z" transform="translate(0.23 0.06)"/><path class="cls-141" d="M296.1,117.46c-.35-.18-72.92-29.29-74-29.29,0,0-40.78,18.11-41.22,18.26s-11.13,0-12.82,0c-.84,0-29.82,10.89-29.82,10.89Z" transform="translate(0.23 0.06)"/><path class="cls-142" d="M180.9,106.55h7.3l20.23-9.12A44.63,44.63,0,0,0,218,91.55l4.08-3.27Z" transform="translate(0.23 0.06)"/><path class="cls-143" d="M293.11,96.74c-6.89,0-13.4-.06-19.11-.06l-52.75,20.76s39.31.37,114.74,0v-36Z" transform="translate(0.23 0.06)"/><polygon class="cls-144" points="282.48 96.74 283.06 96.74 283.06 93.04 285.03 93.04 285.03 96.74 285.62 96.74 285.62 93.04 287.59 93.04 287.59 96.74 288.18 96.74 288.18 93.04 288.88 93.04 285.24 89.49 281.75 93.04 282.48 93.04 282.48 96.74"/><path class="cls-145" d="M293.11,96.74l7.41,0,22.06-7.57s8-3,9.33-4.47L336,81.41Z" transform="translate(0.23 0.06)"/><path class="cls-146" d="M221.25,117.44h13.62l25.61-11.55a45,45,0,0,0,9.61-5.88L274,96.68Z" transform="translate(0.23 0.06)"/><g class="cls-147"><path class="cls-148" d="M205.91,157.1c-59.18-1-99.3-1.26-125.55,0C127.65,157.62,173.7,158.81,205.91,157.1Z" transform="translate(0.23 0.06)"/><path class="cls-148" d="M121.8,144.55c-39.07-.63-65.56-.83-82.89,0C70.14,144.9,100.54,145.69,121.8,144.55Z" transform="translate(0.23 0.06)"/><path class="cls-148" d="M167.22,166.32c-64.66-.79-108.5-1-137.18.12C81.72,166.86,132,167.86,167.22,166.32Z" transform="translate(0.23 0.06)"/><path class="cls-148" d="M326.74,146.76c-59.18-1-99.31-1.26-125.56,0C248.48,147.29,294.52,148.48,326.74,146.76Z" transform="translate(0.23 0.06)"/><path class="cls-148" d="M327.28,163.42c-64.66-.79-108.5-1-137.18.12C241.78,164,292.09,165,327.28,163.42Z" transform="translate(0.23 0.06)"/><path class="cls-148" d="M333.89,167.81c-14.4.08-26.37.16-31.17.22,3.71.11,16.38.21,31.17.29Z" transform="translate(0.23 0.06)"/></g><path class="cls-140" d="M124.06,0C108.32,6.8,94,26.06,85.41,39.65a1.62,1.62,0,0,1-2.88-.23v0h0A53,53,0,0,1,79.8,26.7a32.67,32.67,0,0,1,0-5.15A1.8,1.8,0,0,1,81.16,20c.41-.11.83-.27,1.28-.41s.91-.3,1.39-.51,1-.39,1.48-.62l1.3-.63.48-.25S97.51,12.86,104.51,0h-1.7V0H102A42.2,42.2,0,0,1,99.6,3.57c-.7,1-1.5,1.95-2.31,2.91a38.08,38.08,0,0,1-2.66,2.73,34.54,34.54,0,0,1-2.91,2.42c-.5.37-1,.7-1.52,1h0l-1.53.92h0l-1.39.73-.28.14-.94.42-.85.36-1,.39c-.47.16-.94.29-1.38.43a11.78,11.78,0,0,1-1.29.34l-.75.18a20.89,20.89,0,0,1,1.16-2.94c.42-.94.87-1.79,1.3-2.61l.31-.59.38-.68c.46-.81.92-1.64,1.42-2.44,1.36-2.27,2.84-4.49,4-6.18L90.12,0H86.21c-1.14,1.54-2.5,3.4-3.81,5.36-.57.81-1.11,1.67-1.63,2.5l-.42.66-.2.35c-.58,1-1.18,2-1.66,3a25.67,25.67,0,0,0-2.64,7.4,35.44,35.44,0,0,0-.61,7.63,57.87,57.87,0,0,0,2.3,14l0,.07a21.62,21.62,0,0,1-.51,13.24L61.7,86l-.43.76-.38.62c-.54.88-1.1,1.79-1.75,2.72a24.45,24.45,0,0,1-7.92,7.51c-.1-.39-.2-.81-.32-1.26s-.18-.9-.28-1.38a13.9,13.9,0,0,1-.26-1.55c-.06-.54-.15-1.1-.2-1.69v-.06c-.07-1.17-.11-2.35-.11-3.53V88h0c0-.43.05-.87.08-1.32l.12-1.39.13-1c.06-.42.13-.84.2-1.25s.13-.84.24-1.26c1-3.79,4.44-11,9.77-17.92H58.26a52.73,52.73,0,0,0-3.79,4.84c-.84,1.19-1.63,2.48-2.41,3.81s-1.48,2.74-2.1,4.2a43.45,43.45,0,0,0-1.65,4.42c-.23.74-.41,1.5-.62,2.24h0c-.16.75-.32,1.5-.47,2.23S47,87,46.89,87.74s-.12,1.43-.19,2.12h0c0,.69,0,1.37-.05,2s0,1.28.05,1.89a16,16,0,0,0,.13,1.74c.06.54.09,1.07.17,1.56.17,1,.29,1.83.45,2.52v0a51.93,51.93,0,0,1-12.26,3.7,90.83,90.83,0,0,1-12.36,1.34h0a2.26,2.26,0,0,1-1.49-.5c1.43-2.87,2.86-5.74,4.24-8.61,3.79-7.86,7.3-15.79,10.26-23.69,9.12-21.82,10-51.79,10-54.77C46,16.89,51.37,12.75,58.9,0H56.32A89.84,89.84,0,0,1,46.25,11.71l-.69.52c-.1-1.52-.21-3-.34-4.43C44.9,5,44.53,2.38,44.14,0H41.61c2.08,16.1,1,43.62-9.37,70a210.57,210.57,0,0,1-11,22.64L20,94.73,20,0,11.1,0l-1,43.15h0C.19,30.92.16,0,.16,0S-.49,13.17,0,28.68c.44,14,8.27,24.41,9.83,26.37L5.67,235.21l14.15-.11.11-105.47h0v-3.16c.42-4.55,2.81-12.84,14.25-16.84l0,0,2.14-.46a56.78,56.78,0,0,0,14.07-5.21,36.67,36.67,0,0,0,6.71-4.7c1.56-1.33,4.57-5,4.59-4.92s.24,0,.36,0a2.48,2.48,0,0,0,.27,0l1.87-.25h0c.58-.14,1.31-.26,2.1-.49l1.27-.38c.44-.15.89-.33,1.37-.51a24.88,24.88,0,0,0,2.93-1.4,31.37,31.37,0,0,0,3-1.91c1-.72,2-1.53,2.92-2.37s2.67-2.44,3.64-3.45H77.86c-.58.46-1.15.91-1.74,1.33a33.56,33.56,0,0,1-2.91,1.85,26.55,26.55,0,0,1-2.85,1.39,21.75,21.75,0,0,1-2.64.9l-1.19.3h0l-1.09.19c-.42.07-.8.11-1.15.14,4.94-7.33,14.48-29.48,17.26-34.84C109.12,1,133.16,0,133.16,0Z" transform="translate(0.23 0.06)"/><path class="cls-140" d="M132,235.19h3.46c.09-11.72-1.66-25.4-9-33.31C126.47,201.88,133.74,212.12,132,235.19Z" transform="translate(0.23 0.06)"/><path class="cls-140" d="M137.45,235.19c11.84-12.32,32.25-20.13,48.13-19.25,0,0-10.89-3.38-28.07,3.44a70,70,0,0,0-23.83,15.81Z" transform="translate(0.23 0.06)"/><path class="cls-3" d="M123.3,230.94c0,1.44-.14,2.85-.28,4.25h2.86a69.87,69.87,0,0,0-5.37-30.37c-7.2-17-17.24-22.43-17.24-22.43C115.21,193.25,124.06,213.71,123.3,230.94Z" transform="translate(0.23 0.06)"/><path class="cls-6" d="M112.82,228.63a47.7,47.7,0,0,1,5.26,6.56h3a53.68,53.68,0,0,0-24-19c-13.1-5.2-21.4-2.62-21.4-2.62C88,212.87,103.86,219,112.82,228.63Z" transform="translate(0.23 0.06)"/><path class="cls-140" d="M66.74,235.13c-4.41-30.85-14-67.37-34.75-85.64,0,0,21.28,24.16,26.59,85.64Z" transform="translate(0.23 0.06)"/><path class="cls-140" d="M58.58,235.13c3.13-10.66,8.39-23,17.85-32.77,11.76-12.63,32.54-20.67,48.66-19.77,0,0-10.89-3.38-28.07,3.44C82,191.87,61.76,207,54.49,235.13Z" transform="translate(0.23 0.06)"/><path class="cls-149" d="M55.64,235.13c-.07-18.15,2.06-43.35,15-65.07,12.69-22.11,39.92-40.63,63.41-44.73,0,0-16.8-1.22-39.25,14.34C73.56,154.17,45.3,186.2,48.3,235.13Z" transform="translate(0.23 0.06)"/><path class="cls-138" d="M72.65,91a10.27,10.27,0,0,0,15.41-2.91Z" transform="translate(0.23 0.06)"/><path class="cls-135" d="M28.35,68a9.6,9.6,0,0,0-4.42-7.43,9.61,9.61,0,0,0-8.53-1.41Z" transform="translate(0.23 0.06)"/><path class="cls-138" d="M48.82,48.88a10.25,10.25,0,0,0,12.94,8.84Z" transform="translate(0.23 0.06)"/><path class="cls-138" d="M131.43,5.79a7,7,0,0,0-6.27-.06,6.93,6.93,0,0,0-4.09,4.75Z" transform="translate(0.23 0.06)"/><path class="cls-135" d="M71.89,54.8a7.44,7.44,0,0,0,1.87-11.22Z" transform="translate(0.23 0.06)"/><path class="cls-135" d="M26.27,102a7.44,7.44,0,0,0,4.26-10.55Z" transform="translate(0.23 0.06)"/><path class="cls-135" d="M39.69,18.76a9.6,9.6,0,0,0-8.38-2.13,9.61,9.61,0,0,0-7,5Z" transform="translate(0.23 0.06)"/><path class="cls-138" d="M189.58,157.09a10.83,10.83,0,0,1,9.37,5.28H180.22A10.83,10.83,0,0,1,189.58,157.09Z" transform="translate(0.23 0.06)"/><path class="cls-139" d="M258,177.5a9.71,9.71,0,0,1,8.39,4.73H249.62A9.71,9.71,0,0,1,258,177.5Z" transform="translate(0.23 0.06)"/><path class="cls-138" d="M50.47,134.9a5.76,5.76,0,0,0-5,2.81h9.94A5.75,5.75,0,0,0,50.47,134.9Z" transform="translate(0.23 0.06)"/><path class="cls-150" d="M85.93,135.78a4,4,0,0,0-3.41,1.92h6.82A4,4,0,0,0,85.93,135.78Z" transform="translate(0.23 0.06)"/><path class="cls-149" d="M213.65,69.73a7.4,7.4,0,0,1-.64.68h0a.28.28,0,0,0-.28-.27h0a.28.28,0,0,0-.25.25s-.41-.08-.91-.76a1.65,1.65,0,0,0-.39-.35,2.57,2.57,0,0,0-1.53-.54,7.53,7.53,0,0,1,.72.85c.1.14.2.29.32.49a.63.63,0,0,0,.08.11h0a1.75,1.75,0,0,0,.94.57c.31.12.32.27.27.39a.59.59,0,0,1-.37.31s1.06.17,1.4-.49a1.6,1.6,0,0,0,1.36-.53l.14-.16v0l.07-.1c.64-1,.87-1.15,1-1.21A2.73,2.73,0,0,0,213.65,69.73Z" transform="translate(0.23 0.06)"/><path class="cls-149" d="M221.48,68.36a8.73,8.73,0,0,1-.63.68h0a.27.27,0,0,0-.27-.27h0a.28.28,0,0,0-.25.25s-.4-.08-.91-.76a1.34,1.34,0,0,0-.39-.35,2.57,2.57,0,0,0-1.53-.54,8.28,8.28,0,0,1,.73.85c.09.14.19.29.31.49l.08.11h0a1.71,1.71,0,0,0,.93.57c.31.12.33.27.28.39a.68.68,0,0,1-.37.31s1.05.17,1.39-.49a1.6,1.6,0,0,0,1.36-.53,1.77,1.77,0,0,0,.14-.16v0a.86.86,0,0,0,.07-.1c.64-1,.87-1.15,1-1.21A2.74,2.74,0,0,0,221.48,68.36Z" transform="translate(0.23 0.06)"/><path class="cls-149" d="M234,64.2a8.57,8.57,0,0,1-.63.68h0v0a.27.27,0,0,0-.27-.26h0a.28.28,0,0,0-.25.25s-.4-.08-.9-.76a1.53,1.53,0,0,0-.4-.35,2.54,2.54,0,0,0-1.53-.55,9.77,9.77,0,0,1,.73.85l.31.49.08.11h0a1.71,1.71,0,0,0,.93.57c.31.11.33.27.28.38a.65.65,0,0,1-.37.31s1.05.17,1.39-.48a1.63,1.63,0,0,0,1.36-.53l.14-.16v0a.86.86,0,0,0,.07-.1c.64-1,.87-1.16,1-1.21A2.74,2.74,0,0,0,234,64.2Z" transform="translate(0.23 0.06)"/><path class="cls-149" d="M308,29.42a7.4,7.4,0,0,1-.64.68h0a.28.28,0,0,0-.28-.27h0a.28.28,0,0,0-.24.25s-.41-.08-.91-.76a1.65,1.65,0,0,0-.39-.35,2.65,2.65,0,0,0-1.54-.55,7.66,7.66,0,0,1,.73.86l.32.48a.37.37,0,0,0,.08.11h0a1.75,1.75,0,0,0,.93.57c.31.12.33.27.28.38a.62.62,0,0,1-.37.31s1.06.17,1.4-.48a1.64,1.64,0,0,0,1.36-.53l.14-.16v0l.07-.1c.64-1,.87-1.16,1-1.21A2.73,2.73,0,0,0,308,29.42Z" transform="translate(0.23 0.06)"/><path class="cls-149" d="M251.61,59.73a9.08,9.08,0,0,1-.64.67h0v0a.28.28,0,0,0-.28-.27h0a.27.27,0,0,0-.24.25s-.41-.08-.91-.76a1.94,1.94,0,0,0-.39-.36,2.59,2.59,0,0,0-1.54-.54,8.15,8.15,0,0,1,.73.85c.1.14.2.3.31.49a.64.64,0,0,0,.09.11h0a1.82,1.82,0,0,0,.93.57c.31.11.33.27.28.38a.62.62,0,0,1-.37.31s1.06.17,1.4-.49a1.59,1.59,0,0,0,1.35-.52l.14-.17h0a.36.36,0,0,1,.07-.1c.64-1,.87-1.16,1-1.22A2.77,2.77,0,0,0,251.61,59.73Z" transform="translate(0.23 0.06)"/><path class="cls-149" d="M294.17,54.63c-.05,0-.48.56-.63.67h0v0a.27.27,0,0,0-.27-.27h0a.27.27,0,0,0-.25.25s-.4-.08-.91-.76a1.52,1.52,0,0,0-.39-.36,2.57,2.57,0,0,0-1.53-.54,9.77,9.77,0,0,1,.73.85l.31.49.08.11h0a1.71,1.71,0,0,0,.93.56c.31.12.33.27.28.39a.65.65,0,0,1-.37.31s1.05.17,1.39-.49a1.61,1.61,0,0,0,1.36-.52l.14-.17h0a.86.86,0,0,1,.07-.1c.64-1,.87-1.16,1-1.22A2.78,2.78,0,0,0,294.17,54.63Z" transform="translate(0.23 0.06)"/><path class="cls-149" d="M258.47,54.63c-.05,0-.48.56-.63.67h0v0a.27.27,0,0,0-.28-.27h0a.27.27,0,0,0-.25.25s-.4-.08-.91-.76a1.7,1.7,0,0,0-.39-.36,2.57,2.57,0,0,0-1.53-.54,8.74,8.74,0,0,1,.72.85c.1.14.2.3.32.49a.37.37,0,0,0,.08.11h0a1.79,1.79,0,0,0,.94.56c.31.12.32.27.28.39a.65.65,0,0,1-.37.31s1,.17,1.39-.49a1.61,1.61,0,0,0,1.36-.52l.14-.17h0a.86.86,0,0,1,.07-.1c.64-1,.87-1.16,1-1.22A2.78,2.78,0,0,0,258.47,54.63Z" transform="translate(0.23 0.06)"/><path class="cls-149" d="M275.06,57a7.07,7.07,0,0,1-.63.67h0v0a.27.27,0,0,0-.27-.27h0a.25.25,0,0,0-.24.25s-.41-.08-.91-.76a1.56,1.56,0,0,0-.4-.36A2.55,2.55,0,0,0,271,56a9.77,9.77,0,0,1,.73.85c.09.14.2.3.31.49l.08.11h0a1.82,1.82,0,0,0,.93.56c.31.12.33.27.28.39a.62.62,0,0,1-.37.31s1.06.17,1.39-.49a1.61,1.61,0,0,0,1.36-.52l.14-.17h0l.07-.1c.64-1,.87-1.16,1-1.22A2.78,2.78,0,0,0,275.06,57Z" transform="translate(0.23 0.06)"/><path class="cls-149" d="M239.23,58.36a9.08,9.08,0,0,1-.64.67h0v0a.28.28,0,0,0-.28-.27h0A.27.27,0,0,0,238,59s-.41-.08-.91-.76a1.69,1.69,0,0,0-.39-.36,2.59,2.59,0,0,0-1.54-.54,8.15,8.15,0,0,1,.73.85c.1.14.2.3.31.49l.08.11h0a1.75,1.75,0,0,0,.93.56c.31.12.33.27.28.39a.62.62,0,0,1-.37.31s1.06.17,1.4-.49a1.59,1.59,0,0,0,1.35-.52l.14-.17h0a.36.36,0,0,1,.07-.1c.64-1,.87-1.16,1-1.22A2.77,2.77,0,0,0,239.23,58.36Z" transform="translate(0.23 0.06)"/><path class="cls-149" d="M226.5,62.83c-.05,0-.48.57-.63.68h0v0a.27.27,0,0,0-.28-.26h0a.27.27,0,0,0-.25.25s-.41-.08-.91-.76a1.65,1.65,0,0,0-.39-.35,2.54,2.54,0,0,0-1.53-.55,8.74,8.74,0,0,1,.72.85c.1.14.2.3.32.49a.37.37,0,0,0,.08.11h0a1.79,1.79,0,0,0,.94.57c.31.11.32.27.27.38a.59.59,0,0,1-.37.31s1.06.17,1.4-.49a1.61,1.61,0,0,0,1.36-.52l.14-.16v0a.86.86,0,0,0,.07-.1c.64-1,.87-1.16,1-1.21A2.73,2.73,0,0,0,226.5,62.83Z" transform="translate(0.23 0.06)"/><g class="cls-147"><path class="cls-151" d="M243.46,115.52a20.88,20.88,0,0,1-27.56,10.92,21.16,21.16,0,0,1-10.84-27.77,20.88,20.88,0,0,1,27.56-10.92A21.15,21.15,0,0,1,243.46,115.52Z" transform="translate(0.23 0.06)"/><path class="cls-152" d="M143.85,131.47a32.86,32.86,0,0,1-43.36,17.18A33.29,33.29,0,0,1,83.43,105a32.86,32.86,0,0,1,43.36-17.19A33.29,33.29,0,0,1,143.85,131.47Z" transform="translate(0.23 0.06)"/><path class="cls-153" d="M90.35,165.84a27.67,27.67,0,0,1-36.52,14.47,28,28,0,0,1-14.36-36.79A27.67,27.67,0,0,1,76,129.05,28,28,0,0,1,90.35,165.84Z" transform="translate(0.23 0.06)"/><path class="cls-154" d="M108.19,104.74a14.92,14.92,0,0,1-19.68,7.8,15.11,15.11,0,0,1-7.74-19.83,14.91,14.91,0,0,1,19.68-7.8A15.11,15.11,0,0,1,108.19,104.74Z" transform="translate(0.23 0.06)"/><path class="cls-155" d="M48.2,85.44A20.87,20.87,0,0,1,20.64,96.36,21.16,21.16,0,0,1,9.8,68.59,20.88,20.88,0,0,1,37.36,57.67,21.15,21.15,0,0,1,48.2,85.44Z" transform="translate(0.23 0.06)"/><path class="cls-156" d="M262.33,179.05a28.4,28.4,0,0,1-37.47,14.85,28.76,28.76,0,0,1-14.74-37.75,28.38,28.38,0,0,1,37.47-14.85A28.76,28.76,0,0,1,262.33,179.05Z" transform="translate(0.23 0.06)"/><path class="cls-157" d="M154.6,207.53A20.89,20.89,0,0,1,127,218.45a21.15,21.15,0,0,1-10.84-27.77,20.88,20.88,0,0,1,27.56-10.92A21.16,21.16,0,0,1,154.6,207.53Z" transform="translate(0.23 0.06)"/><path class="cls-158" d="M128,78.85a20.88,20.88,0,0,1-27.56,10.93A21.16,21.16,0,0,1,89.62,62a20.89,20.89,0,0,1,27.56-10.93A21.16,21.16,0,0,1,128,78.85Z" transform="translate(0.23 0.06)"/><path class="cls-159" d="M92.06,56.39A29.49,29.49,0,0,1,53.14,71.82,29.88,29.88,0,0,1,37.83,32.61,29.5,29.5,0,0,1,76.75,17.18,29.88,29.88,0,0,1,92.06,56.39Z" transform="translate(0.23 0.06)"/><path class="cls-160" d="M70.93,195a20.89,20.89,0,0,1-27.57,10.92,21.15,21.15,0,0,1-10.84-27.76,20.88,20.88,0,0,1,27.56-10.93A21.17,21.17,0,0,1,70.93,195Z" transform="translate(0.23 0.06)"/><path class="cls-161" d="M154.6,81.87A20.88,20.88,0,0,1,127,92.79,21.14,21.14,0,0,1,116.2,65,20.88,20.88,0,0,1,143.76,54.1,21.16,21.16,0,0,1,154.6,81.87Z" transform="translate(0.23 0.06)"/><path class="cls-162" d="M273.18,88.81a20.89,20.89,0,0,1-27.56,10.92A21.17,21.17,0,0,1,234.77,72,20.9,20.9,0,0,1,262.34,61,21.17,21.17,0,0,1,273.18,88.81Z" transform="translate(0.23 0.06)"/><path class="cls-163" d="M305.56,56a27,27,0,0,1-35.68,14.14,27.39,27.39,0,0,1-14-35.95,27,27,0,0,1,35.68-14.14A27.4,27.4,0,0,1,305.56,56Z" transform="translate(0.23 0.06)"/><path class="cls-164" d="M299.65,130.48a29,29,0,0,1-38.32,15.19,29.42,29.42,0,0,1-15.08-38.61,29,29,0,0,1,38.32-15.19A29.42,29.42,0,0,1,299.65,130.48Z" transform="translate(0.23 0.06)"/><path class="cls-165" d="M302.31,201.06A20.88,20.88,0,0,1,274.75,212a21.16,21.16,0,0,1-10.84-27.77,20.88,20.88,0,0,1,27.56-10.92A21.15,21.15,0,0,1,302.31,201.06Z" transform="translate(0.23 0.06)"/><path class="cls-166" d="M50,158.73a20.88,20.88,0,0,1-27.56,10.92,21.16,21.16,0,0,1-10.85-27.76A20.89,20.89,0,0,1,39.14,131,21.17,21.17,0,0,1,50,158.73Z" transform="translate(0.23 0.06)"/></g><path class="cls-136" d="M9.65,138.05V121c.1-2.08.55.35.35,1.22v13.75c.12,29.71.53,58.65.34,89.19v3.36c.24,1.75-.58,1.75-.34,0C9,199.29,9.08,167.65,9.65,138.05Z" transform="translate(0.23 0.06)"/><path class="cls-136" d="M15.73-.06h.73c0,19.74-.11,77.4-.4,96.74C15.87,77.07,15.71,19.71,15.73-.06Z" transform="translate(0.23 0.06)"/><path class="cls-136" d="M13.55,235.13c.44-18.58-.09-37.21-.09-55.87,0-19.76-.67-39.53-.67-59.25,0-40,.31-79.81.23-120.07h-.79c-.12,40.29.28,80.1.28,119.79,0,9.93-.06,19.83-.06,29.72s-.33,19.75-.33,29.63c0,18.65-.46,37.32-.07,56Z" transform="translate(0.23 0.06)"/><path class="cls-139" d="M261.15,235.26a96.16,96.16,0,0,1,28-6.3c14.47-1,31.73,3.12,40.58,6.3Z" transform="translate(0.23 0.06)"/><path class="cls-135" d="M332.87,235.13l-.47-.68c-7-10-36.43-47-36.43-47a129.88,129.88,0,0,1,38.82,28.71c.29.31.58.63.86.95v18Z" transform="translate(0.23 0.06)"/><path class="cls-137" d="M297.37,188.58l-.75-.49A3.31,3.31,0,0,1,297.37,188.58Z" transform="translate(0.23 0.06)"/><path class="cls-138" d="M335.65,190.64v37.48c-1-2.8-1.93-5.28-2.68-7.25-5.26-13.86-29-66.19-29-66.19A156.47,156.47,0,0,1,335.65,190.64Z" transform="translate(0.23 0.06)"/><path class="cls-6" d="M335.65,208.45c-9.13-23.44-26.5-47.37-30.32-52,3.31,3.6,17.16,19.49,30.32,48.93Z" transform="translate(0.23 0.06)"/><path class="cls-137" d="M305.33,156.46c-.44-.48-.71-.76-.75-.82A5.29,5.29,0,0,1,305.33,156.46Z" transform="translate(0.23 0.06)"/><path class="cls-136" d="M316.21,235.13C299,226.38,254.85,206,254.85,206a157.92,157.92,0,0,1,57.8,9.93,142.92,142.92,0,0,1,23,11.4v7.77Z" transform="translate(0.23 0.06)"/><path class="cls-149" d="M333.75,235.13h-2.42c-5.64-3.17-11.36-6-16.61-8.74-22.37-12-51.79-18.89-57.73-19.89C263,207.19,293.39,211.55,333.75,235.13Z" transform="translate(0.23 0.06)"/><path class="cls-139" d="M323.75,235.13c-3.76-3.22-7.11-6.08-9.49-8-9.93-8.22-50.3-37.58-50.3-37.58a137.27,137.27,0,0,1,47.58,18.28,137.68,137.68,0,0,1,24.11,19.79v7.56Z" transform="translate(0.23 0.06)"/><path class="cls-140" d="M334.29,235.13h-1.63c-.78-.78-1.55-1.54-2.32-2.29-6-5.84-12.83-11.05-18.81-15.83-17-14-40.93-24.88-45.82-26.74C271.16,192,300.39,202.33,334.29,235.13Z" transform="translate(0.23 0.06)"/><polygon class="cls-6" points="210.55 136.13 255.64 136.13 260.29 158.75 215.19 158.75 210.55 136.13"/><polygon class="cls-136" points="304.3 181.91 158.31 181.91 149.76 171.38 305.32 171.38 304.3 181.91"/><polygon class="cls-167" points="303.57 186.49 162.18 186.49 158.31 181.91 304.3 181.91 303.57 186.49"/><polygon class="cls-3" points="210.55 136.13 206.38 158.75 208.3 158.75 211.42 140.36 210.55 136.13"/><polygon class="cls-168" points="211.42 140.36 208.3 158.75 208.3 171.42 216.99 171.33 216.99 158.75 215.19 158.75 211.42 140.36"/><rect class="cls-169" x="216.99" y="158.75" width="38.35" height="12.58"/><rect class="cls-170" x="222.74" y="158.75" width="27.87" height="11.24"/><polygon class="cls-171" points="215.07 169.98 210.12 169.98 210.12 158.5 212.39 145.08 215.19 158.75 215.07 169.98"/><polygon class="cls-167" points="256.51 140.36 211.42 140.36 211.42 140.36 211.62 141.34 256.71 141.34 256.51 140.36"/><polygon class="cls-167" points="257.72 146.26 212.63 146.26 212.83 147.23 257.92 147.23 257.72 146.26"/><polygon class="cls-167" points="258.93 152.16 213.84 152.16 214.04 153.13 259.13 153.13 258.93 152.16"/><path class="cls-3" d="M162.63,166.39v5H285.4v-5Zm7.64,3.5H163.2V167h7.07Zm7.64,0h-7.07V167h7.07Zm7.65,0h-7.07V167h7.07Zm7.64,0h-7.07V167h7.07Zm7.64,0h-7.07V167h7.07Zm7.64,0h-7.07V167h7.07Zm7.65,0h-7.07V167h7.07Zm7.64,0H216.7V167h7.07Zm7.64,0h-7.07V167h7.07Zm7.65,0H232V167h7.07Zm7.64,0h-7.07V167h7.07Zm7.64,0h-7.07V167h7.07Zm7.65,0h-7.07V167H262Zm7.64,0h-7.07V167h7.07Zm7.64,0H270.2V167h7.07Zm7.64,0h-7.06V167h7.06Z" transform="translate(0.23 0.06)"/><polygon class="cls-172" points="153.96 176.56 154.44 177.15 155.3 178.07 304.67 178.07 304.82 176.56 153.96 176.56"/><g class="cls-147"><polygon class="cls-6" points="210.55 235.25 255.64 235.25 260.29 213.33 215.19 213.33 210.55 235.25"/><polygon class="cls-136" points="304.3 190.88 158.31 190.88 149.76 201.09 305.32 201.09 304.3 190.88"/><polygon class="cls-167" points="303.57 186.45 162.18 186.45 158.31 190.88 304.3 190.88 303.57 186.45"/><polygon class="cls-3" points="210.55 235.25 206.38 213.33 208.3 213.33 211.42 231.15 210.55 235.25"/><polygon class="cls-168" points="211.42 231.15 208.3 213.33 208.3 201.05 216.99 201.13 216.99 213.33 215.19 213.33 211.42 231.15"/><rect class="cls-169" x="216.99" y="201.14" width="38.35" height="12.2"/><rect class="cls-173" x="222.74" y="202.44" width="27.87" height="10.89"/><polygon class="cls-174" points="215.07 202.44 210.12 202.44 210.12 213.57 212.39 226.57 215.19 213.33 215.07 202.44"/><polygon class="cls-167" points="256.51 231.15 211.42 231.15 211.42 231.15 211.62 230.2 256.71 230.2 256.51 231.15"/><polygon class="cls-167" points="257.72 225.43 212.63 225.43 212.83 224.49 257.92 224.49 257.72 225.43"/><polygon class="cls-167" points="258.93 219.72 213.84 219.72 214.04 218.77 259.13 218.77 258.93 219.72"/><path class="cls-3" d="M285.4,205.8v-4.88H162.63v4.88Zm-115.13-.56H163.2v-2.83h7.07Zm7.64,0h-7.07v-2.83h7.07Zm7.65,0h-7.07v-2.83h7.07Zm7.64,0h-7.07v-2.83h7.07Zm7.64,0h-7.07v-2.83h7.07Zm7.64,0h-7.07v-2.83h7.07Zm7.65,0h-7.07v-2.83h7.07Zm7.64,0H216.7v-2.83h7.07Zm7.64,0h-7.07v-2.83h7.07Zm7.65,0H232v-2.83h7.07Zm7.64,0h-7.07v-2.83h7.07Zm7.64,0h-7.07v-2.83h7.07Zm7.65,0h-7.07v-2.83H262Zm7.64,0h-7.07v-2.83h7.07Zm7.64,0H270.2v-2.83h7.07Zm7.64,0h-7.06v-2.83h7.06Z" transform="translate(0.23 0.06)"/><polygon class="cls-175" points="153.96 196.07 154.44 195.5 155.3 194.61 304.67 194.61 304.82 196.07 153.96 196.07"/></g><path class="cls-140" d="M244.11,235.19a92.21,92.21,0,0,1,10.27-25.68c11.74-20.45,36.93-37.59,58.67-41.39,0,0-15.55-1.12-36.32,13.27a96.61,96.61,0,0,0-37.86,53.8Z" transform="translate(0.23 0.06)"/><path class="cls-3" d="M235,230.17c-.05,1.69-.18,3.36-.34,5h3.39a82.71,82.71,0,0,0-6.36-35.89c-8.5-20.13-20.37-26.5-20.37-26.5C225.46,185.63,235.92,209.8,235,230.17Z" transform="translate(0.23 0.06)"/><path class="cls-3" d="M219.55,235.13c-2.64-18.45-8.36-40.29-20.79-51.22,0,0,12.73,14.45,15.91,51.22Z" transform="translate(0.23 0.06)"/><path class="cls-6" d="M199.19,235.13c2.57-8.73,6.87-18.81,14.62-26.84,9.63-10.35,26.66-16.93,39.86-16.2,0,0-8.92-2.77-23,2.82a58.36,58.36,0,0,0-34.83,40.22Z" transform="translate(0.23 0.06)"/></svg>